<svg xmlns="http://www.w3.org/2000/svg" version="1.1" xmlns:xlink="http://www.w3.org/1999/xlink" xmlns:svgjs="http://svgjs.dev/svgjs" width="1500" height="1387" viewBox="0 0 1500 1387"><g transform="matrix(1,0,0,1,1.0564228719615585,0.5615384615384755)"><svg viewBox="0 0 267 247" data-background-color="#000000" preserveAspectRatio="xMidYMid meet" height="1387" width="1500" xmlns="http://www.w3.org/2000/svg" xmlns:xlink="http://www.w3.org/1999/xlink"><g id="tight-bounds" transform="matrix(1,0,0,1,-0.18804327120915332,-0.09999999999999432)"><svg viewBox="0 0 267.3760865424183 247.2" height="247.2" width="267.3760865424183"><g><svg viewBox="0 0 395.5199999999999 365.67422788009384" height="247.2" width="267.3760865424183"><g transform="matrix(1,0,0,1,0,271.6147748479892)"><svg viewBox="0 0 395.5199999999999 94.05945303210463" height="94.05945303210463" width="395.5199999999999"><g id="textblocktransform"><svg viewBox="0 0 395.5199999999999 94.05945303210463" height="94.05945303210463" width="395.5199999999999" id="textblock"><g><svg viewBox="0 0 395.5199999999999 94.05945303210463" height="94.05945303210463" width="395.5199999999999"><g transform="matrix(1,0,0,1,0,0)"><svg width="395.5199999999999" viewBox="1.46 -29.79 164.25 39.06999999999999" height="94.05945303210463" data-palette-color="url(#b58df60c-89e4-4228-8ddd-3d236063190a)"></svg></g></svg></g></svg></g></svg></g><g transform="matrix(1,0,0,1,84.15779201001247,0)"><svg viewBox="0 0 227.20441597997498 227.20441597997498" height="227.20441597997498" width="227.20441597997498"><g><svg></svg></g><g id="icon-0"><svg viewBox="0 0 227.20441597997498 227.20441597997498" height="227.20441597997498" width="227.20441597997498"><g></g><g transform="matrix(1,0,0,1,47.97743284035562,49.57803711229785)"><svg viewBox="0 0 131.24955029926375 128.04834175537928" height="128.04834175537928" width="131.24955029926375"><g><svg xmlns="http://www.w3.org/2000/svg" xmlns:xlink="http://www.w3.org/1999/xlink" version="1.1" x="0" y="0" viewBox="9 10 82 80" style="enable-background:new 0 0 100 100;" xml:space="preserve" height="128.04834175537928" width="131.24955029926375" class="icon-cg-0" data-fill-palette-color="quaternary" id="cg-0"><g fill="#000000" data-fill-palette-color="quaternary"><path d="M81 10c-5.5 0-10 4.5-10 10 0 1.4 0.3 2.6 0.8 3.8L54.5 41.1C53.1 40.4 51.6 40 50 40c-5.5 0-10 4.5-10 10s4.5 10 10 10 10-4.5 10-10c0-2.4-0.9-4.7-2.3-6.4l16.4-16.4c1.8 1.7 4.2 2.8 6.9 2.8 5.5 0 10-4.5 10-10S86.5 10 81 10zM50 56c-3.3 0-6-2.7-6-6s2.7-6 6-6 6 2.7 6 6S53.3 56 50 56zM81 26c-3.3 0-6-2.7-6-6s2.7-6 6-6 6 2.7 6 6S84.3 26 81 26z" fill="#000000" data-fill-palette-color="quaternary"></path><path d="M50 30c5.5 0 10-4.5 10-10s-4.5-10-10-10-10 4.5-10 10S44.5 30 50 30zM50 14c3.3 0 6 2.7 6 6s-2.7 6-6 6-6-2.7-6-6S46.7 14 50 14z" fill="#000000" data-fill-palette-color="quaternary"></path><path d="M81 40c-5.5 0-10 4.5-10 10s4.5 10 10 10 10-4.5 10-10S86.5 40 81 40zM81 56c-3.3 0-6-2.7-6-6s2.7-6 6-6 6 2.7 6 6S84.3 56 81 56z" fill="#000000" data-fill-palette-color="quaternary"></path><path d="M19 70c-5.5 0-10 4.5-10 10s4.5 10 10 10 10-4.5 10-10S24.5 70 19 70zM19 86c-3.3 0-6-2.7-6-6s2.7-6 6-6 6 2.7 6 6S22.3 86 19 86z" fill="#000000" data-fill-palette-color="quaternary"></path><path d="M81 70c-4.8 0-8.9 3.4-9.8 8H59.8c-0.9-4.6-5-8-9.8-8-3.1 0-5.9 1.4-7.7 3.7L25.8 57.3c1.9-1.8 3.2-4.4 3.2-7.3 0-4.8-3.4-8.9-8-9.8V29.8c4.6-0.9 8-5 8-9.8 0-5.5-4.5-10-10-10S9 14.5 9 20c0 4.8 3.4 8.9 8 9.8v10.4c-4.6 0.9-8 5-8 9.8 0 5.5 4.5 10 10 10 1.2 0 2.3-0.2 3.3-0.6l18 18C40.1 78.3 40 79.1 40 80c0 5.5 4.5 10 10 10 4.8 0 8.9-3.4 9.8-8h11.4c0.9 4.6 5 8 9.8 8 5.5 0 10-4.5 10-10S86.5 70 81 70zM13 20c0-3.3 2.7-6 6-6s6 2.7 6 6-2.7 6-6 6S13 23.3 13 20zM13 50c0-3.3 2.7-6 6-6s6 2.7 6 6-2.7 6-6 6S13 53.3 13 50zM50 86c-3.3 0-6-2.7-6-6s2.7-6 6-6 6 2.7 6 6S53.3 86 50 86zM81 86c-3.3 0-6-2.7-6-6s2.7-6 6-6 6 2.7 6 6S84.3 86 81 86z" fill="#000000" data-fill-palette-color="quaternary"></path></g></svg></g></svg></g></svg></g></svg></g><g></g></svg></g><defs></defs><mask id="d4b99e99-9d33-4687-945c-eaccf4282ce1"><g id="SvgjsG1579"><svg viewBox="0 0 267.3760865424183 247.2" height="247.2" width="267.3760865424183"><g><svg viewBox="0 0 395.5199999999999 365.67422788009384" height="247.2" width="267.3760865424183"><g transform="matrix(1,0,0,1,0,271.6147748479892)"><svg viewBox="0 0 395.5199999999999 94.05945303210463" height="94.05945303210463" width="395.5199999999999"><g id="SvgjsG1578"><svg viewBox="0 0 395.5199999999999 94.05945303210463" height="94.05945303210463" width="395.5199999999999" id="SvgjsSvg1577"><g><svg viewBox="0 0 395.5199999999999 94.05945303210463" height="94.05945303210463" width="395.5199999999999"><g transform="matrix(1,0,0,1,0,0)"><svg width="395.5199999999999" viewBox="1.46 -29.79 164.25 39.06999999999999" height="94.05945303210463" data-palette-color="url(#b58df60c-89e4-4228-8ddd-3d236063190a)"><path d="M10.99-1.22L10.99-1.22 8.79-1.22 8.79-11.77Q8.94-16.06 11.77-18.16L11.77-18.16Q13.09-19.14 14.4-19.14L14.4-19.14Q16.85-19.14 17.77-16.46L17.77-16.46Q18.16-15.28 18.16-13.82L18.16-13.82 18.16-4.15Q18.16-1.9 17.09-1.46L17.09-1.46Q16.41-1.22 14.75-1.22L14.75-1.22 14.75 0 25.24 0Q25.24-1.07 24.51-1.17L24.51-1.17Q24.32-1.22 24.02-1.22L24.02-1.22 21.83-1.22 21.83-13.33 21.83-13.72Q22.61-17.29 25.29-18.7L25.29-18.7Q26.32-19.19 27.25-19.19L27.25-19.19Q29.74-19.19 30.76-16.6L30.76-16.6Q31.25-15.38 31.25-13.82L31.25-13.82 31.25-4.15Q31.25-1.9 30.18-1.46L30.18-1.46Q29.49-1.22 27.83-1.22L27.83-1.22 27.83 0 38.62 0Q38.62-1.07 37.89-1.17L37.89-1.17Q37.7-1.22 37.4-1.22L37.4-1.22 34.91-1.22 34.91-13.33Q34.91-18.36 31.64-20.36L31.64-20.36Q30.18-21.24 28.47-21.24L28.47-21.24Q24.76-21.24 22.51-17.77L22.51-17.77Q21.92-16.89 21.53-15.92L21.53-15.92Q20.65-19.78 17.68-20.9L17.68-20.9Q16.8-21.24 15.87-21.24L15.87-21.24Q12.35-21.24 10.06-18.26L10.06-18.26Q9.23-17.19 8.74-15.87L8.74-15.87 8.54-20.75 1.46-20.75 1.46-19.53 5.13-19.53 5.13-4.15Q5.13-1.9 3.86-1.46L3.86-1.46Q3.13-1.22 1.46-1.22L1.46-1.22 1.46 0 12.21 0Q12.21-1.03 11.47-1.17L11.47-1.17Q11.23-1.22 10.99-1.22ZM41.94-9.13L41.94-11.43 53.07-11.43 53.07-9.13 41.94-9.13ZM62.98-13.53L62.98-13.53Q63.08-19.97 67.87-20.02L67.87-20.02Q72.65-19.92 72.7-13.53L72.7-13.53Q72.6-6.88 67.87-6.84L67.87-6.84Q63.03-6.93 62.98-13.53ZM67.91-21.24L67.91-21.24Q63.52-21.24 60.93-18.41L60.93-18.41Q59.08-16.31 59.08-13.48L59.08-13.48Q59.08-9.77 62.69-7.32L62.69-7.32Q63.03-7.08 63.37-6.88L63.37-6.88Q60.25-6.88 59.47-4.2L59.47-4.2Q59.32-3.56 59.32-2.93L59.32-2.93Q59.37-0.34 61.42 0.93L61.42 0.93Q59.81 2.64 59.81 4.39L59.81 4.39Q59.81 7.08 62.98 8.4L62.98 8.4Q64.99 9.28 67.91 9.28L67.91 9.28Q75.34 9.28 77.73 5.66L77.73 5.66Q78.51 4.44 78.51 3.08L78.51 3.08Q78.51-1.12 73.68-1.76L73.68-1.76Q73.04-1.86 72.36-1.86L72.36-1.86 63.47-2.05Q61.23-2.2 61.18-4L61.18-4Q61.18-5.27 62.79-5.62L62.79-5.62Q63.13-5.66 63.52-5.66L63.52-5.66 67.82-5.62Q72.16-5.62 74.75-8.54L74.75-8.54Q76.61-10.64 76.61-13.53L76.61-13.53Q76.56-17.19 73.77-19.38L73.77-19.38Q74.21-20.95 75.43-21.24L75.43-21.24Q75.63-21.29 75.83-21.29L75.83-21.29Q76.51-21.29 77.29-20.56L77.29-20.56Q77.83-20.07 78.27-20.07L78.27-20.07Q79.49-20.36 79.68-21.63L79.68-21.63Q79.68-23.14 78.27-23.68L78.27-23.68Q77.73-23.88 77.19-23.88L77.19-23.88Q74.9-23.88 73.48-21.83L73.48-21.83Q72.94-21.04 72.65-20.12L72.65-20.12Q70.45-21.24 67.91-21.24ZM67.91 8.01L67.91 8.01Q63.08 8.01 61.81 5.47L61.81 5.47Q61.47 4.79 61.47 4.1L61.47 4.1Q61.52 2.78 62.64 1.46L62.64 1.46Q63.62 1.66 64.25 1.66L64.25 1.66 71.77 1.76Q75.43 1.81 76.02 3.42L76.02 3.42Q76.17 3.81 76.17 4.39L76.17 4.39Q76.17 6.54 72.16 7.52L72.16 7.52Q70.21 8.01 67.91 8.01ZM82.07 0L94.04 0 94.04-1.27 90.18-1.27 90.18-13.43 94.82-13.43 102.63 0 110 0Q110-1.07 109.42-1.22L109.42-1.22Q109.17-1.27 108.83-1.27L108.83-1.27 106.97-1.27 99.11-13.87Q103.75-14.99 105.46-18.7L105.46-18.7Q106.1-20.17 106.1-21.68L106.1-21.68Q106.1-25.34 102.92-27.54L102.92-27.54Q100.33-29.3 96.53-29.3L96.53-29.3 82.07-29.3 82.07-28.03 85.98-28.03 85.98-1.27 82.07-1.27 82.07 0ZM90.18-28.03L95.06-28.03Q99.26-28.03 100.87-24.61L100.87-24.61Q101.51-23.19 101.51-21.63L101.51-21.63Q101.51-18.12 99.06-16.16L99.06-16.16Q97.4-14.84 95.21-14.84L95.21-14.84 90.18-14.84 90.18-28.03ZM120.06-28.03L125.38-28.03Q129.73-28.03 131-24.12L131-24.12Q131.39-22.85 131.39-21.39L131.39-21.39Q131.39-15.04 125.72-14.4L125.72-14.4Q125.14-14.36 124.55-14.36L124.55-14.36 120.06-14.36 120.06-28.03ZM111.95 0L124.94 0Q124.94-1.07 124.16-1.22L124.16-1.22Q123.92-1.27 123.67-1.27L123.67-1.27 120.06-1.27 120.06-12.94 124.36-12.94Q132.36-12.94 134.95-17.48L134.95-17.48Q135.98-19.19 135.98-21.44L135.98-21.44Q135.98-26.27 131.78-28.22L131.78-28.22Q129.53-29.3 126.41-29.3L126.41-29.3 111.95-29.3 111.95-28.03 115.86-28.03 115.86-1.27 111.95-1.27 111.95 0ZM164.2-2.25L164.2-2.25Q164.2-0.2 164.78 0.1L164.78 0.1Q165.12 0.24 165.71 0.24L165.71 0.24 165.71-8.98 164.54-8.98Q162.05-0.93 154.58-0.88L154.58-0.88Q148.23-0.88 145.93-7.28L145.93-7.28Q144.81-10.4 144.81-14.65L144.81-14.65Q144.81-23.78 149.84-27.05L149.84-27.05Q152.04-28.42 154.72-28.42L154.72-28.42Q160.83-28.42 163.56-22.66L163.56-22.66Q164.05-21.63 164.39-20.56L164.39-20.56 165.56-20.56 165.42-29.54Q164.34-29.54 164.1-28.86L164.1-28.86Q163.95-28.27 163.95-26.95L163.95-26.95Q162.54-28.37 159.12-29.25L159.12-29.25Q156.87-29.79 154.53-29.79L154.53-29.79Q146.81-29.79 142.71-24.07L142.71-24.07Q139.88-20.02 139.88-14.75L139.88-14.75Q139.88-8.35 143.84-4L143.84-4Q148.03 0.49 154.77 0.49L154.77 0.49Q159.7 0.44 164.2-2.25Z" opacity="1" transform="matrix(1,0,0,1,0,0)" fill="white" class="wordmark-text-0" id="SvgjsPath1576"></path></svg></g></svg></g></svg></g></svg></g><g transform="matrix(1,0,0,1,84.15779201001247,0)"><svg viewBox="0 0 227.20441597997498 227.20441597997498" height="227.20441597997498" width="227.20441597997498"><g><svg></svg></g><g id="SvgjsG1575"><svg viewBox="0 0 227.20441597997498 227.20441597997498" height="227.20441597997498" width="227.20441597997498"><g><path d="M0 113.602c0-62.741 50.861-113.602 113.602-113.602 62.741 0 113.602 50.861 113.602 113.602 0 62.741-50.861 113.602-113.602 113.602-62.741 0-113.602-50.861-113.602-113.602zM113.602 218.722c58.056 0 105.12-47.064 105.12-105.12 0-58.056-47.064-105.12-105.12-105.12-58.056 0-105.12 47.064-105.12 105.12 0 58.056 47.064 105.12 105.12 105.12z" fill="black" stroke="transparent"></path><ellipse rx="112.46618591008762" ry="112.46618591008762" cx="113.60220798998749" cy="113.60220798998749" fill="black" stroke="transparent" stroke-width="0" fill-opacity="1"></ellipse></g><g transform="matrix(1,0,0,1,47.97743284035562,49.57803711229785)"><svg viewBox="0 0 131.24955029926375 128.04834175537928" height="128.04834175537928" width="131.24955029926375"><g><svg xmlns="http://www.w3.org/2000/svg" xmlns:xlink="http://www.w3.org/1999/xlink" version="1.1" x="0" y="0" viewBox="9 10 82 80" style="enable-background:new 0 0 100 100;" xml:space="preserve" height="128.04834175537928" width="131.24955029926375" class="icon-cg-0" data-fill-palette-color="quaternary" id="SvgjsSvg1574"><g fill="black"><path d="M81 10c-5.5 0-10 4.5-10 10 0 1.4 0.3 2.6 0.8 3.8L54.5 41.1C53.1 40.4 51.6 40 50 40c-5.5 0-10 4.5-10 10s4.5 10 10 10 10-4.5 10-10c0-2.4-0.9-4.7-2.3-6.4l16.4-16.4c1.8 1.7 4.2 2.8 6.9 2.8 5.5 0 10-4.5 10-10S86.5 10 81 10zM50 56c-3.3 0-6-2.7-6-6s2.7-6 6-6 6 2.7 6 6S53.3 56 50 56zM81 26c-3.3 0-6-2.7-6-6s2.7-6 6-6 6 2.7 6 6S84.3 26 81 26z" fill="black"></path><path d="M50 30c5.5 0 10-4.5 10-10s-4.5-10-10-10-10 4.5-10 10S44.5 30 50 30zM50 14c3.3 0 6 2.7 6 6s-2.7 6-6 6-6-2.7-6-6S46.7 14 50 14z" fill="black"></path><path d="M81 40c-5.5 0-10 4.5-10 10s4.5 10 10 10 10-4.5 10-10S86.5 40 81 40zM81 56c-3.3 0-6-2.7-6-6s2.7-6 6-6 6 2.7 6 6S84.3 56 81 56z" fill="black"></path><path d="M19 70c-5.5 0-10 4.5-10 10s4.5 10 10 10 10-4.5 10-10S24.5 70 19 70zM19 86c-3.3 0-6-2.7-6-6s2.7-6 6-6 6 2.7 6 6S22.3 86 19 86z" fill="black"></path><path d="M81 70c-4.8 0-8.9 3.4-9.8 8H59.8c-0.9-4.6-5-8-9.8-8-3.1 0-5.9 1.4-7.7 3.7L25.8 57.3c1.9-1.8 3.2-4.4 3.2-7.3 0-4.8-3.4-8.9-8-9.8V29.8c4.6-0.9 8-5 8-9.8 0-5.5-4.5-10-10-10S9 14.5 9 20c0 4.8 3.4 8.9 8 9.8v10.4c-4.6 0.9-8 5-8 9.8 0 5.5 4.5 10 10 10 1.2 0 2.3-0.2 3.3-0.6l18 18C40.1 78.3 40 79.1 40 80c0 5.5 4.5 10 10 10 4.8 0 8.9-3.4 9.8-8h11.4c0.9 4.6 5 8 9.8 8 5.5 0 10-4.5 10-10S86.5 70 81 70zM13 20c0-3.3 2.7-6 6-6s6 2.7 6 6-2.7 6-6 6S13 23.3 13 20zM13 50c0-3.3 2.7-6 6-6s6 2.7 6 6-2.7 6-6 6S13 53.3 13 50zM50 86c-3.3 0-6-2.7-6-6s2.7-6 6-6 6 2.7 6 6S53.3 86 50 86zM81 86c-3.3 0-6-2.7-6-6s2.7-6 6-6 6 2.7 6 6S84.3 86 81 86z" fill="black"></path></g></svg></g></svg></g></svg></g></svg></g><g></g></svg></g><defs><mask></mask></defs></svg><rect width="267.3760865424183" height="247.2" fill="black" stroke="none" visibility="hidden"></rect></g></mask><linearGradient x1="0" x2="1" y1="0.578" y2="0.595" id="b58df60c-89e4-4228-8ddd-3d236063190a"><stop stop-color="#6ee2f5" offset="0"></stop><stop stop-color="#6454f0" offset="1"></stop></linearGradient><rect width="267.3760865424183" height="247.2" fill="url(#b58df60c-89e4-4228-8ddd-3d236063190a)" mask="url(#d4b99e99-9d33-4687-945c-eaccf4282ce1)" data-fill-palette-color="primary"></rect><mask id="38df12e7-ee49-4dd8-9c13-b79fa514d3f4"><g id="SvgjsG1602"><svg viewBox="0 0 267.3760865424183 247.2" height="247.2" width="267.3760865424183"><g><svg viewBox="0 0 395.5199999999999 365.67422788009384" height="247.2" width="267.3760865424183"><g transform="matrix(1,0,0,1,0,271.6147748479892)"><svg viewBox="0 0 395.5199999999999 94.05945303210463" height="94.05945303210463" width="395.5199999999999"><g id="SvgjsG1601"><svg viewBox="0 0 395.5199999999999 94.05945303210463" height="94.05945303210463" width="395.5199999999999" id="SvgjsSvg1600"><g><svg viewBox="0 0 395.5199999999999 94.05945303210463" height="94.05945303210463" width="395.5199999999999"><g transform="matrix(1,0,0,1,0,0)"><svg width="395.5199999999999" viewBox="1.46 -29.79 164.25 39.06999999999999" height="94.05945303210463" data-palette-color="url(#b58df60c-89e4-4228-8ddd-3d236063190a)"></svg></g></svg></g></svg></g></svg></g><g transform="matrix(1,0,0,1,84.15779201001247,0)"><svg viewBox="0 0 227.20441597997498 227.20441597997498" height="227.20441597997498" width="227.20441597997498"><g><svg></svg></g><g id="SvgjsG1599"><svg viewBox="0 0 227.20441597997498 227.20441597997498" height="227.20441597997498" width="227.20441597997498"><g><path d="M0 113.602c0-62.741 50.861-113.602 113.602-113.602 62.741 0 113.602 50.861 113.602 113.602 0 62.741-50.861 113.602-113.602 113.602-62.741 0-113.602-50.861-113.602-113.602zM113.602 218.722c58.056 0 105.12-47.064 105.12-105.12 0-58.056-47.064-105.12-105.12-105.12-58.056 0-105.12 47.064-105.12 105.12 0 58.056 47.064 105.12 105.12 105.12z" fill="white" stroke="transparent"></path><ellipse rx="112.46618591008762" ry="112.46618591008762" cx="113.60220798998749" cy="113.60220798998749" fill="white" stroke="transparent" stroke-width="0" fill-opacity="1"></ellipse></g><g transform="matrix(1,0,0,1,47.97743284035562,49.57803711229785)"><svg viewBox="0 0 131.24955029926375 128.04834175537928" height="128.04834175537928" width="131.24955029926375"><g><svg xmlns="http://www.w3.org/2000/svg" xmlns:xlink="http://www.w3.org/1999/xlink" version="1.1" x="0" y="0" viewBox="9 10 82 80" style="enable-background:new 0 0 100 100;" xml:space="preserve" height="128.04834175537928" width="131.24955029926375" class="icon-cg-0" data-fill-palette-color="quaternary" id="SvgjsSvg1598"><g fill="black"><path d="M81 10c-5.5 0-10 4.5-10 10 0 1.4 0.3 2.6 0.8 3.8L54.5 41.1C53.1 40.4 51.6 40 50 40c-5.5 0-10 4.5-10 10s4.5 10 10 10 10-4.5 10-10c0-2.4-0.9-4.7-2.3-6.4l16.4-16.4c1.8 1.7 4.2 2.8 6.9 2.8 5.5 0 10-4.5 10-10S86.5 10 81 10zM50 56c-3.3 0-6-2.7-6-6s2.7-6 6-6 6 2.7 6 6S53.3 56 50 56zM81 26c-3.3 0-6-2.7-6-6s2.7-6 6-6 6 2.7 6 6S84.3 26 81 26z" fill="black"></path><path d="M50 30c5.5 0 10-4.5 10-10s-4.5-10-10-10-10 4.5-10 10S44.5 30 50 30zM50 14c3.3 0 6 2.7 6 6s-2.7 6-6 6-6-2.7-6-6S46.7 14 50 14z" fill="black"></path><path d="M81 40c-5.5 0-10 4.5-10 10s4.5 10 10 10 10-4.5 10-10S86.5 40 81 40zM81 56c-3.3 0-6-2.7-6-6s2.7-6 6-6 6 2.7 6 6S84.3 56 81 56z" fill="black"></path><path d="M19 70c-5.5 0-10 4.5-10 10s4.5 10 10 10 10-4.5 10-10S24.5 70 19 70zM19 86c-3.3 0-6-2.7-6-6s2.7-6 6-6 6 2.7 6 6S22.3 86 19 86z" fill="black"></path><path d="M81 70c-4.8 0-8.9 3.4-9.8 8H59.8c-0.9-4.6-5-8-9.8-8-3.1 0-5.9 1.4-7.7 3.7L25.8 57.3c1.9-1.8 3.2-4.4 3.2-7.3 0-4.8-3.4-8.9-8-9.8V29.8c4.6-0.9 8-5 8-9.8 0-5.5-4.5-10-10-10S9 14.5 9 20c0 4.8 3.4 8.9 8 9.8v10.4c-4.6 0.9-8 5-8 9.8 0 5.5 4.5 10 10 10 1.2 0 2.3-0.2 3.3-0.6l18 18C40.1 78.3 40 79.1 40 80c0 5.5 4.5 10 10 10 4.8 0 8.9-3.4 9.8-8h11.4c0.9 4.6 5 8 9.8 8 5.5 0 10-4.5 10-10S86.5 70 81 70zM13 20c0-3.3 2.7-6 6-6s6 2.7 6 6-2.7 6-6 6S13 23.3 13 20zM13 50c0-3.3 2.7-6 6-6s6 2.7 6 6-2.7 6-6 6S13 53.3 13 50zM50 86c-3.3 0-6-2.7-6-6s2.7-6 6-6 6 2.7 6 6S53.3 86 50 86zM81 86c-3.3 0-6-2.7-6-6s2.7-6 6-6 6 2.7 6 6S84.3 86 81 86z" fill="black"></path></g></svg></g></svg></g></svg></g></svg></g><g></g></svg></g><defs><mask></mask></defs><mask><g id="SvgjsG1597"><svg viewBox="0 0 267.3760865424183 247.2" height="247.2" width="267.3760865424183"><g><svg viewBox="0 0 395.5199999999999 365.67422788009384" height="247.2" width="267.3760865424183"><g transform="matrix(1,0,0,1,0,271.6147748479892)"><svg viewBox="0 0 395.5199999999999 94.05945303210463" height="94.05945303210463" width="395.5199999999999"><g id="SvgjsG1596"><svg viewBox="0 0 395.5199999999999 94.05945303210463" height="94.05945303210463" width="395.5199999999999" id="SvgjsSvg1595"><g><svg viewBox="0 0 395.5199999999999 94.05945303210463" height="94.05945303210463" width="395.5199999999999"><g transform="matrix(1,0,0,1,0,0)"><svg width="395.5199999999999" viewBox="1.46 -29.79 164.25 39.06999999999999" height="94.05945303210463" data-palette-color="url(#b58df60c-89e4-4228-8ddd-3d236063190a)"><path d="M10.99-1.22L10.99-1.22 8.79-1.22 8.79-11.77Q8.94-16.06 11.77-18.16L11.77-18.16Q13.09-19.14 14.4-19.14L14.4-19.14Q16.85-19.14 17.77-16.46L17.77-16.46Q18.16-15.28 18.16-13.82L18.16-13.82 18.16-4.15Q18.16-1.9 17.09-1.46L17.09-1.46Q16.41-1.22 14.75-1.22L14.75-1.22 14.75 0 25.24 0Q25.24-1.07 24.51-1.17L24.51-1.17Q24.32-1.22 24.02-1.22L24.02-1.22 21.83-1.22 21.83-13.33 21.83-13.72Q22.61-17.29 25.29-18.7L25.29-18.7Q26.32-19.19 27.25-19.19L27.25-19.19Q29.74-19.19 30.76-16.6L30.76-16.6Q31.25-15.38 31.25-13.82L31.25-13.82 31.25-4.15Q31.25-1.9 30.18-1.46L30.18-1.46Q29.49-1.22 27.83-1.22L27.83-1.22 27.83 0 38.62 0Q38.62-1.07 37.89-1.17L37.89-1.17Q37.7-1.22 37.4-1.22L37.4-1.22 34.91-1.22 34.91-13.33Q34.91-18.36 31.64-20.36L31.64-20.36Q30.18-21.24 28.47-21.24L28.47-21.24Q24.76-21.24 22.51-17.77L22.51-17.77Q21.92-16.89 21.53-15.92L21.53-15.92Q20.65-19.78 17.68-20.9L17.68-20.9Q16.8-21.24 15.87-21.24L15.87-21.24Q12.35-21.24 10.06-18.26L10.06-18.26Q9.23-17.19 8.74-15.87L8.74-15.87 8.54-20.75 1.46-20.75 1.46-19.53 5.13-19.53 5.13-4.15Q5.13-1.9 3.86-1.46L3.86-1.46Q3.13-1.22 1.46-1.22L1.46-1.22 1.46 0 12.21 0Q12.21-1.03 11.47-1.17L11.47-1.17Q11.23-1.22 10.99-1.22ZM41.94-9.13L41.94-11.43 53.07-11.43 53.07-9.13 41.94-9.13ZM62.98-13.53L62.98-13.53Q63.08-19.97 67.87-20.02L67.87-20.02Q72.65-19.92 72.7-13.53L72.7-13.53Q72.6-6.88 67.87-6.84L67.87-6.84Q63.03-6.93 62.98-13.53ZM67.91-21.24L67.91-21.24Q63.52-21.24 60.93-18.41L60.93-18.41Q59.08-16.31 59.08-13.48L59.08-13.48Q59.08-9.77 62.69-7.32L62.69-7.32Q63.03-7.08 63.37-6.88L63.37-6.88Q60.25-6.88 59.47-4.2L59.47-4.2Q59.32-3.56 59.32-2.93L59.32-2.93Q59.37-0.34 61.42 0.93L61.42 0.93Q59.81 2.64 59.81 4.39L59.81 4.39Q59.81 7.08 62.98 8.4L62.98 8.4Q64.99 9.28 67.91 9.28L67.91 9.28Q75.34 9.28 77.73 5.66L77.73 5.66Q78.51 4.44 78.51 3.08L78.51 3.08Q78.51-1.12 73.68-1.76L73.68-1.76Q73.04-1.86 72.36-1.86L72.36-1.86 63.47-2.05Q61.23-2.2 61.18-4L61.18-4Q61.18-5.27 62.79-5.62L62.79-5.62Q63.13-5.66 63.52-5.66L63.52-5.66 67.82-5.62Q72.16-5.62 74.75-8.54L74.75-8.54Q76.61-10.64 76.61-13.53L76.61-13.53Q76.56-17.19 73.77-19.38L73.77-19.38Q74.21-20.95 75.43-21.24L75.43-21.24Q75.63-21.29 75.83-21.29L75.83-21.29Q76.51-21.29 77.29-20.56L77.29-20.56Q77.83-20.07 78.27-20.07L78.27-20.07Q79.49-20.36 79.68-21.63L79.68-21.63Q79.68-23.14 78.27-23.68L78.27-23.68Q77.73-23.88 77.19-23.88L77.19-23.88Q74.9-23.88 73.48-21.83L73.48-21.83Q72.94-21.04 72.65-20.12L72.65-20.12Q70.45-21.24 67.91-21.24ZM67.91 8.01L67.91 8.01Q63.08 8.01 61.81 5.47L61.81 5.47Q61.47 4.79 61.47 4.1L61.47 4.1Q61.52 2.78 62.64 1.46L62.64 1.46Q63.62 1.66 64.25 1.66L64.25 1.66 71.77 1.76Q75.43 1.81 76.02 3.42L76.02 3.42Q76.17 3.81 76.17 4.39L76.17 4.39Q76.17 6.54 72.16 7.52L72.16 7.52Q70.21 8.01 67.91 8.01ZM82.07 0L94.04 0 94.04-1.27 90.18-1.27 90.18-13.43 94.82-13.43 102.63 0 110 0Q110-1.07 109.42-1.22L109.42-1.22Q109.17-1.27 108.83-1.27L108.83-1.27 106.97-1.27 99.11-13.87Q103.75-14.99 105.46-18.7L105.46-18.7Q106.1-20.17 106.1-21.68L106.1-21.68Q106.1-25.34 102.92-27.54L102.92-27.54Q100.33-29.3 96.53-29.3L96.53-29.3 82.07-29.3 82.07-28.03 85.98-28.03 85.98-1.27 82.07-1.27 82.07 0ZM90.18-28.03L95.06-28.03Q99.26-28.03 100.87-24.61L100.87-24.61Q101.51-23.19 101.51-21.63L101.51-21.63Q101.51-18.12 99.06-16.16L99.06-16.16Q97.4-14.84 95.21-14.84L95.21-14.84 90.18-14.84 90.18-28.03ZM120.06-28.03L125.38-28.03Q129.73-28.03 131-24.12L131-24.12Q131.39-22.85 131.39-21.39L131.39-21.39Q131.39-15.04 125.72-14.4L125.72-14.4Q125.14-14.36 124.55-14.36L124.55-14.36 120.06-14.36 120.06-28.03ZM111.95 0L124.94 0Q124.94-1.07 124.16-1.22L124.16-1.22Q123.92-1.27 123.67-1.27L123.67-1.27 120.06-1.27 120.06-12.94 124.36-12.94Q132.36-12.94 134.95-17.48L134.95-17.48Q135.98-19.19 135.98-21.44L135.98-21.44Q135.98-26.27 131.78-28.22L131.78-28.22Q129.53-29.3 126.41-29.3L126.41-29.3 111.95-29.3 111.95-28.03 115.86-28.03 115.86-1.27 111.95-1.27 111.95 0ZM164.2-2.25L164.2-2.25Q164.2-0.2 164.78 0.1L164.78 0.1Q165.12 0.24 165.71 0.24L165.71 0.24 165.71-8.98 164.54-8.98Q162.05-0.93 154.58-0.88L154.58-0.88Q148.23-0.88 145.93-7.28L145.93-7.28Q144.81-10.4 144.81-14.65L144.81-14.65Q144.81-23.78 149.84-27.05L149.84-27.05Q152.04-28.42 154.72-28.42L154.72-28.42Q160.83-28.42 163.56-22.66L163.56-22.66Q164.05-21.63 164.39-20.56L164.39-20.56 165.56-20.56 165.42-29.54Q164.34-29.54 164.1-28.86L164.1-28.86Q163.95-28.27 163.95-26.95L163.95-26.95Q162.54-28.37 159.12-29.25L159.12-29.25Q156.87-29.79 154.53-29.79L154.53-29.79Q146.81-29.79 142.71-24.07L142.71-24.07Q139.88-20.02 139.88-14.75L139.88-14.75Q139.88-8.35 143.84-4L143.84-4Q148.03 0.49 154.77 0.49L154.77 0.49Q159.7 0.44 164.2-2.25Z" opacity="1" transform="matrix(1,0,0,1,0,0)" fill="black" class="wordmark-text-0" id="SvgjsPath1594"></path></svg></g></svg></g></svg></g></svg></g><g transform="matrix(1,0,0,1,84.15779201001247,0)"><svg viewBox="0 0 227.20441597997498 227.20441597997498" height="227.20441597997498" width="227.20441597997498"><g><svg></svg></g><g id="SvgjsG1593"><svg viewBox="0 0 227.20441597997498 227.20441597997498" height="227.20441597997498" width="227.20441597997498"><g><path d="M0 113.602c0-62.741 50.861-113.602 113.602-113.602 62.741 0 113.602 50.861 113.602 113.602 0 62.741-50.861 113.602-113.602 113.602-62.741 0-113.602-50.861-113.602-113.602zM113.602 218.722c58.056 0 105.12-47.064 105.12-105.12 0-58.056-47.064-105.12-105.12-105.12-58.056 0-105.12 47.064-105.12 105.12 0 58.056 47.064 105.12 105.12 105.12z" fill="black" stroke="transparent"></path><ellipse rx="112.46618591008762" ry="112.46618591008762" cx="113.60220798998749" cy="113.60220798998749" fill="black" stroke="transparent" stroke-width="0" fill-opacity="1"></ellipse></g><g transform="matrix(1,0,0,1,47.97743284035562,49.57803711229785)"><svg viewBox="0 0 131.24955029926375 128.04834175537928" height="128.04834175537928" width="131.24955029926375"><g><svg xmlns="http://www.w3.org/2000/svg" xmlns:xlink="http://www.w3.org/1999/xlink" version="1.1" x="0" y="0" viewBox="9 10 82 80" style="enable-background:new 0 0 100 100;" xml:space="preserve" height="128.04834175537928" width="131.24955029926375" class="icon-cg-0" data-fill-palette-color="quaternary" id="SvgjsSvg1592"><g fill="black"><path d="M81 10c-5.5 0-10 4.5-10 10 0 1.4 0.3 2.6 0.8 3.8L54.5 41.1C53.1 40.4 51.6 40 50 40c-5.5 0-10 4.5-10 10s4.5 10 10 10 10-4.5 10-10c0-2.4-0.9-4.7-2.3-6.4l16.4-16.4c1.8 1.7 4.2 2.8 6.9 2.8 5.5 0 10-4.5 10-10S86.5 10 81 10zM50 56c-3.3 0-6-2.7-6-6s2.7-6 6-6 6 2.7 6 6S53.3 56 50 56zM81 26c-3.3 0-6-2.7-6-6s2.7-6 6-6 6 2.7 6 6S84.3 26 81 26z" fill="black"></path><path d="M50 30c5.5 0 10-4.5 10-10s-4.5-10-10-10-10 4.5-10 10S44.5 30 50 30zM50 14c3.3 0 6 2.7 6 6s-2.7 6-6 6-6-2.7-6-6S46.7 14 50 14z" fill="black"></path><path d="M81 40c-5.5 0-10 4.5-10 10s4.5 10 10 10 10-4.5 10-10S86.5 40 81 40zM81 56c-3.3 0-6-2.7-6-6s2.7-6 6-6 6 2.7 6 6S84.3 56 81 56z" fill="black"></path><path d="M19 70c-5.5 0-10 4.5-10 10s4.5 10 10 10 10-4.5 10-10S24.5 70 19 70zM19 86c-3.3 0-6-2.7-6-6s2.7-6 6-6 6 2.7 6 6S22.3 86 19 86z" fill="black"></path><path d="M81 70c-4.8 0-8.9 3.4-9.8 8H59.8c-0.9-4.6-5-8-9.8-8-3.1 0-5.9 1.4-7.7 3.7L25.8 57.3c1.9-1.8 3.2-4.4 3.2-7.3 0-4.8-3.4-8.9-8-9.8V29.8c4.6-0.9 8-5 8-9.8 0-5.5-4.5-10-10-10S9 14.5 9 20c0 4.8 3.4 8.9 8 9.8v10.4c-4.6 0.9-8 5-8 9.8 0 5.5 4.5 10 10 10 1.2 0 2.3-0.2 3.3-0.6l18 18C40.1 78.3 40 79.1 40 80c0 5.5 4.5 10 10 10 4.8 0 8.9-3.4 9.8-8h11.4c0.9 4.6 5 8 9.8 8 5.5 0 10-4.5 10-10S86.5 70 81 70zM13 20c0-3.3 2.7-6 6-6s6 2.7 6 6-2.7 6-6 6S13 23.3 13 20zM13 50c0-3.3 2.7-6 6-6s6 2.7 6 6-2.7 6-6 6S13 53.3 13 50zM50 86c-3.3 0-6-2.7-6-6s2.7-6 6-6 6 2.7 6 6S53.3 86 50 86zM81 86c-3.3 0-6-2.7-6-6s2.7-6 6-6 6 2.7 6 6S84.3 86 81 86z" fill="black"></path></g></svg></g></svg></g></svg></g></svg></g><g></g></svg></g><defs><mask></mask></defs></svg><rect width="267.3760865424183" height="247.2" fill="black" stroke="none" visibility="hidden"></rect></g></mask></svg><rect width="267.3760865424183" height="247.2" fill="black" stroke="none" visibility="hidden"></rect></g></mask><linearGradient x1="0" x2="1" y1="0.578" y2="0.595" id="4dc8426f-9b03-46e1-b646-78524c349785"><stop stop-color="#6ee2f5" offset="0"></stop><stop stop-color="#6454f0" offset="1"></stop></linearGradient><rect width="267.3760865424183" height="247.2" fill="url(#4dc8426f-9b03-46e1-b646-78524c349785)" mask="url(#38df12e7-ee49-4dd8-9c13-b79fa514d3f4)" data-fill-palette-color="accent"></rect></svg><rect width="267.3760865424183" height="247.2" fill="none" stroke="none" visibility="hidden"></rect></g></svg></g></svg>